<?xml version="1.0" encoding="UTF-8" standalone="no"?>
<!DOCTYPE svg PUBLIC "-//W3C//DTD SVG 1.1//EN" "http://www.w3.org/Graphics/SVG/1.1/DTD/svg11.dtd">
<svg width="100%" height="100%" viewBox="0 0 256 256" version="1.1" xmlns="http://www.w3.org/2000/svg" xmlns:xlink="http://www.w3.org/1999/xlink" xml:space="preserve" xmlns:serif="http://www.serif.com/" style="fill-rule:evenodd;clip-rule:evenodd;stroke-linejoin:round;stroke-miterlimit:2;">
    <g transform="matrix(1,0,0,1,-0.05,-18.6)">
        <path d="M236.2,221.9C229.8,228.3 221.6,231.7 212.6,231.7L43.4,231.7C25,231.7 10,216.7 10,198.3L10,95C10,85.9 13.4,77.8 19.8,71.4C26.2,65 34.4,61.6 43.4,61.6L68.9,61.6L187.2,61.5L212.7,61.5C231.1,61.5 246.1,76.5 246.1,94.9L246.1,198.2C246,207.4 242.6,215.5 236.2,221.9ZM226.1,95C226.1,87.6 220.1,81.6 212.7,81.6L43.4,81.6C39.6,81.6 36.6,82.9 33.9,85.6C31.2,88.2 30,91.2 30,95L30,198.3C30,205.7 36,211.7 43.4,211.7L212.6,211.7C216.4,211.7 219.4,210.4 222.1,207.8C224.8,205.1 226,202.1 226,198.3L226,95L226.1,95Z" style="fill-rule:nonzero;"/>
    </g>
</svg>
