<?xml version="1.0" encoding="UTF-8" standalone="no"?>
<!DOCTYPE svg PUBLIC "-//W3C//DTD SVG 1.1//EN" "http://www.w3.org/Graphics/SVG/1.1/DTD/svg11.dtd">
<svg width="100%" height="100%" viewBox="0 0 450 450" version="1.1" xmlns="http://www.w3.org/2000/svg" xmlns:xlink="http://www.w3.org/1999/xlink" xml:space="preserve" xmlns:serif="http://www.serif.com/" style="fill-rule:evenodd;clip-rule:evenodd;stroke-linecap:round;stroke-linejoin:round;stroke-miterlimit:1.5;">
    <g transform="matrix(1,0,0,1,-45.4308,-103.808)">
        <path d="M123.12,180.341L175.754,233.503" style="fill:none;stroke:black;stroke-width:32px;"/>
        <g transform="matrix(1,0,0,1,241.274,243.057)">
            <path d="M123.12,180.341L175.754,233.503" style="fill:none;stroke:black;stroke-width:32px;"/>
        </g>
    </g>
    <g transform="matrix(0.708357,0.705854,-0.705854,0.708357,265.172,-198.65)">
        <path d="M123.12,180.341L175.754,233.503" style="fill:none;stroke:black;stroke-width:32px;"/>
        <g transform="matrix(1,0,0,1,241.274,243.057)">
            <path d="M123.12,180.341L175.754,233.503" style="fill:none;stroke:black;stroke-width:32px;"/>
        </g>
    </g>
    <g transform="matrix(0.704256,-0.709946,0.709946,0.704256,-198.74,185.068)">
        <path d="M123.12,180.341L175.754,233.503" style="fill:none;stroke:black;stroke-width:32px;"/>
        <g transform="matrix(1,0,0,1,241.274,243.057)">
            <path d="M123.12,180.341L175.754,233.503" style="fill:none;stroke:black;stroke-width:32px;"/>
        </g>
    </g>
    <g transform="matrix(-0.00372872,-0.999993,0.999993,-0.00372872,-102.798,495.94)">
        <path d="M123.12,180.341L175.754,233.503" style="fill:none;stroke:black;stroke-width:32px;"/>
        <g transform="matrix(1,0,0,1,241.274,243.057)">
            <path d="M123.12,180.341L175.754,233.503" style="fill:none;stroke:black;stroke-width:32px;"/>
        </g>
    </g>
    <g transform="matrix(1.24848,0,0,1.24881,-133.776,-187.499)">
        <ellipse cx="284.997" cy="330.541" rx="70.548" ry="70.722" style="fill:none;stroke:black;stroke-width:25.63px;"/>
    </g>
</svg>
