<?xml version="1.0" encoding="iso-8859-1"?>
<!-- Uploaded to: SVG Repo, www.svgrepo.com, Generator: SVG Repo Mixer Tools -->
<svg fill="#000000" height="800px" width="800px" version="1.1" id="Layer_1" xmlns="http://www.w3.org/2000/svg" xmlns:xlink="http://www.w3.org/1999/xlink" 
	 viewBox="0 0 329.936 329.936" xml:space="preserve">
<path id="XMLID_10_" d="M289.006,47.695c-5.857-5.858-15.355-5.858-21.213,0c-5.858,5.858-5.858,15.355,0,21.213
	c42.876,42.877,42.876,112.642,0,155.518c-20.77,20.77-48.385,32.209-77.759,32.209s-56.989-11.439-77.759-32.209
	c-23.143-23.142-34.505-55.142-31.806-87.099l30.104,20.115c2.522,1.686,5.428,2.528,8.333,2.528c2.905,0,5.812-0.843,8.333-2.528
	c5.045-3.371,7.562-9.448,6.379-15.398l-17.238-86.668c-0.776-3.902-3.07-7.335-6.378-9.546c-3.308-2.209-7.357-3.015-11.26-2.24
	L12.074,60.828c-5.95,1.184-10.601,5.835-11.786,11.786c-1.184,5.95,1.334,12.027,6.378,15.398l46.189,30.863
	c-9.238,45.745,4.899,93.458,38.206,126.764c26.436,26.436,61.585,40.996,98.972,40.996s72.536-14.559,98.972-40.996
	C343.579,191.066,343.579,102.268,289.006,47.695z M89.883,75.94l7.248,36.438L78.14,99.689c-0.017-0.011-0.034-0.022-0.05-0.034
	L53.445,83.187L89.883,75.94z"/>
</svg>