<?xml version="1.0" encoding="UTF-8" standalone="no"?>
<!DOCTYPE svg PUBLIC "-//W3C//DTD SVG 1.1//EN" "http://www.w3.org/Graphics/SVG/1.1/DTD/svg11.dtd">
<svg width="100%" height="100%" viewBox="0 0 298 234" version="1.1" xmlns="http://www.w3.org/2000/svg" xmlns:xlink="http://www.w3.org/1999/xlink" xml:space="preserve" xmlns:serif="http://www.serif.com/" style="fill-rule:evenodd;clip-rule:evenodd;stroke-linecap:round;stroke-linejoin:round;stroke-miterlimit:1.5;">
    <g id="aestesis">
        <path d="M27.86,38.376C73.282,-7.923 151.347,-7.092 207.86,15.86C224.433,22.591 241.156,31.124 254.181,43.708C289.927,78.245 313.598,136.853 282.206,182.133C278.09,188.069 273.17,193.479 267.86,198.376C245.989,218.542 215.28,229.649 185.88,231.95C138.847,235.631 92.13,226.918 53.239,199.069C21.029,176.004 -4.968,133.205 1.492,92.267C3.885,77.101 7.507,69.979 14.741,56.603C17.913,50.738 23.172,43.153 27.86,38.376ZM31.005,71.73C29.712,83.757 29.328,95.87 28.897,107.959C28.655,114.732 28.683,121.521 28.988,128.291C29.227,133.587 29.76,138.874 30.526,144.119C32.288,156.185 37.975,165.546 50.459,168.376C73.908,173.69 97.508,178.316 121.092,182.99C136.854,186.114 152.617,189.283 168.492,191.768C190.57,195.225 233.987,205.069 237.86,171.146C240.669,146.534 241.372,121.401 239.807,96.673C238.679,78.839 235.33,62.802 218.842,52.75C206.792,45.404 190.862,46.782 177.89,46.302C151.565,45.329 110.352,45.319 84.164,46.225C67.05,46.817 41.255,42.689 33.19,62.851C32.058,65.681 31.331,68.699 31.005,71.73Z" style="stroke:black;stroke-width:1px;"/>
    </g>
</svg>
