<?xml version="1.0" encoding="UTF-8" standalone="no"?>
<!DOCTYPE svg PUBLIC "-//W3C//DTD SVG 1.1//EN" "http://www.w3.org/Graphics/SVG/1.1/DTD/svg11.dtd">
<svg width="100%" height="100%" viewBox="0 0 298 234" version="1.1" xmlns="http://www.w3.org/2000/svg" xmlns:xlink="http://www.w3.org/1999/xlink" xml:space="preserve" xmlns:serif="http://www.serif.com/" style="fill-rule:evenodd;clip-rule:evenodd;stroke-linecap:round;stroke-linejoin:round;stroke-miterlimit:1.5;">
    <g id="aestesis" transform="matrix(1,0,0,1,-172.14,-261.624)">
        <path d="M200,300C245.423,253.702 323.487,254.533 380,277.484C396.573,284.215 413.296,292.748 426.321,305.332C462.068,339.869 485.738,398.478 454.346,443.757C450.23,449.694 445.311,455.103 440,460C418.13,480.166 387.421,491.273 358.02,493.574C310.987,497.255 264.27,488.542 225.379,460.693C193.17,437.629 167.173,394.829 173.632,353.892C176.025,338.725 179.648,331.604 186.882,318.227C190.054,312.362 195.313,304.778 200,300Z" style="fill:rgb(254,0,110);stroke:rgb(254,0,110);stroke-width:1px;"/>
        <path d="M203.145,333.354C201.853,345.382 201.468,357.494 201.037,369.583C200.796,376.357 200.824,383.145 201.129,389.916C201.367,395.211 201.901,400.498 202.667,405.744C204.428,417.809 210.116,427.171 222.6,430C246.048,435.314 269.649,439.94 293.233,444.615C308.995,447.738 324.758,450.907 340.633,453.393C362.71,456.849 406.128,466.694 410,432.77C412.809,408.158 413.512,383.025 411.948,358.298C410.819,340.463 407.47,324.427 390.983,314.375C378.933,307.028 363.002,308.406 350.03,307.927C323.706,306.954 282.492,306.943 256.305,307.849C239.191,308.441 213.395,304.313 205.331,324.475C204.199,327.305 203.471,330.324 203.145,333.354Z" style="fill:rgb(66,44,132);stroke:rgb(254,0,110);stroke-width:1px;"/>
    </g>
</svg>
